<?xml version="1.0" encoding="UTF-8"?>
<svg id="Layer_1" data-name="Layer 1" xmlns="http://www.w3.org/2000/svg" viewBox="0 0 234.23 67.13">
  <defs>
    <style>
      .cls-1 {
        fill: #231f20;
      }
    </style>
  </defs>
  <path class="cls-1" d="M95.24,24.43c-10.77,11.2-22.4,21.58-34.76,30.99-3.61,2.75-7.29,5.42-11.02,8-.68.47-.1.64.47.57,12.75-1.43,25.39-3.82,37.77-7.17,6.12-1.66,12.18-3.55,18.16-5.67s11.53-4.13,17-6.78c3.94-1.91,8.47-4.76,9.09-9.5.7-5.39-4.22-9.4-8.89-10.72-2.73-.77-5.61-.91-8.43-.93-3.07-.02-6.14.09-9.2.3-6.05.41-12.07,1.27-17.99,2.54-13.42,2.88-26.35,7.84-38.2,14.77-.27.16-.53.45-.09.56,4.38,1.16,8.92.75,13.35.19,4.98-.63,9.96-1.29,14.93-1.93,9.92-1.28,19.84-2.57,29.76-3.85.51-.07,1.64-.19,1.94-.68s-.25-.48-.67-.43c-9.59,1.24-19.18,2.48-28.78,3.73-4.76.62-9.51,1.23-14.27,1.85s-9.3,1.26-13.89.04l-.09.56c9.83-5.74,20.44-10.09,31.48-12.87,5.51-1.39,11.13-2.38,16.79-2.97s11.49-1.04,17.13-.48c5,.5,10.51,2.8,11.98,8.09,1.36,4.88-2.4,8.56-6.31,10.73-2.26,1.25-4.71,2.19-7.1,3.17-2.76,1.13-5.55,2.2-8.35,3.23-5.49,2-11.05,3.81-16.67,5.41-12.83,3.65-25.94,6.22-39.19,7.71l.47.57c12.98-8.98,25.26-18.93,36.69-29.81,3.24-3.08,6.41-6.24,9.51-9.47.44-.45-.39-.45-.67-.43-.58.04-1.52.24-1.94.68h-.01Z"/>
  <path class="cls-1" d="M135.23,30.66c-1.38-.11-2.73.24-3.85,1.06-.72.53-1.31,1.35-1.39,2.26s.2,1.74.8,2.41c.74.83,1.9,1.1,2.97,1.11,2.11,0,4.74-.92,5.8-2.88.79-1.46.42-3.47-1.16-4.23-1.18-.57-2.73-.22-3.83.36-.91.48-1.62,1.27-1.61,2.34,0,.22.42.33.55.35.34.06.75,0,1.08-.08.49-.14,1.28-.43,1.27-1.05,0,.09,0-.07,0-.09,0-.06.02-.13.04-.19,0-.05.04-.1.05-.14.07-.22-.05.07.02-.04.06-.1.13-.19.21-.28-.17.19-.02.05,0,0,.03-.03.06-.05.09-.07-.16.1-.18.12-.06.05.14-.09.05.05-.11.05.02,0,.12-.05.15-.06l-.22.08c.12-.03.1-.03-.04,0l-.12.02c.15-.02.11-.02-.12,0,0,0,.16,0,.16,0,0-.04-.3,0-.04,0,.08,0,.21.09,0,0,.07.03.15.06.22.1.15.07.07.04.03.01.07.05.14.1.2.16.08.07.16.16.23.24.17.2.26.38.35.65.18.55.19,1.06.02,1.61-.09.27-.16.4-.32.63-.04.05-.08.1-.12.16,0,0-.23.25-.07.1-.12.12-.25.22-.37.32-.25.2.15-.08-.02.02-.07.04-.14.08-.21.13-.1.06-.18.03.06-.02-.06,0-.13.06-.18.08-.02,0-.27.12-.28.11,0,0,.38-.11.09-.04-.06.02-.13.03-.19.05-.29.08.34-.05-.06,0-.1,0-.19.03-.29.03.06,0,.27,0,0,0,.02,0-.36-.02-.19,0s-.2-.03-.18-.03c-.22-.04-.58-.18-.74-.3-.46-.35-.76-.81-.9-1.37-.08-.31-.11-.61-.05-.92.06-.36.16-.59.35-.84.04-.05.08-.1.12-.15.14-.18-.09.05.08-.08.06-.05.13-.1.19-.15.07-.05.05-.04-.07.05.05-.03.11-.07.17-.1-.02,0-.3.16-.07.04.28-.15-.32.08-.02,0-.4.09-.17.04-.06.02.1,0,.06,0-.13,0,.14,0,.13,0-.03,0,.69.05,1.52-.07,2.05-.55.16-.14.36-.34.3-.58-.06-.22-.35-.34-.55-.35h-.03Z"/>
  <path class="cls-1" d="M139.5,31.18c-.54.15-1.09.39-1.53.75-.31.26-.52.54-.7.9-.24.47-.31,1.07-.16,1.58.17.58.64,1.04,1.21,1.22.96.31,2.04.17,2.96-.21.8-.32,1.66-.91,1.88-1.8.06-.22-.09-.37-.28-.46-.27-.12-.67-.11-.95-.06-.38.06-.77.16-1.1.36-.21.13-.5.3-.56.56-.03.11-.07.22-.12.33l.1-.19c-.07.13-.16.24-.26.35l.19-.19c-.05.05-.11.1-.16.15-.05.04-.19.13.03-.02s.08-.05.03-.02c-.03.02-.06.03-.08.05.28-.13.36-.17.24-.12-.02,0-.04.02-.06.03-.03,0-.06.02-.09.03.55-.21.37-.12.24-.08s-.33.05.25-.05c-.03,0-.06,0-.09.02h-.06c-.13,0-.04,0,.27-.02h-.2c.27.02.34.03.23.02h-.06c-.07,0-.14-.02-.22-.04l.26.07c-.13-.04-.26-.09-.37-.16l.19.11c-.18-.11-.33-.26-.45-.44l.1.16c-.17-.28-.24-.6-.23-.93v.19c0-.3.09-.59.23-.86l-.1.19c.08-.15.18-.28.3-.4l-.19.19s.08-.07.12-.1c.02-.02.05-.04.07-.06,0,0-.33.2-.17.12.02,0,.05-.03.07-.04.15-.08-.37.16-.23.11.02,0,.05-.02.07-.03,0,0-.48.15-.26.09.33-.09.71-.24.97-.46.13-.11.38-.36.3-.57-.08-.22-.33-.31-.55-.34-.36-.05-.73,0-1.08.09h0v-.02Z"/>
  <path class="cls-1" d="M143.62,30.51c-.98,1.1-2.26,3.84-.21,4.57,1.62.58,3.45-.38,4.6-1.49.97-.93,1.71-2.03,2.19-3.29l-2.89.4c-.32,1-.64,2-.96,3-.11.35.3.48.54.54,2.84.67,6.37-.82,7.55-3.55l-2.79.75c.06.09.07.25.06.36-.02.24-.23.31.09.12-.21.13-.86.62-.47.92.79.6,1.75.74,2.71.58.51-.08,1.52-.33,1.66-.94s-.9-.59-1.23-.54c-.23.03-.2.04.08.02-.06,0-.11,0-.17-.03-.14-.07-.23-.1-.35-.19l-.47.92c.85-.52,1.38-1.4.78-2.32-.24-.37-1.21-.2-1.53-.11-.48.14-1.06.37-1.27.86-.16.37-.39.72-.67,1.02-.28.3-.46.41-.79.59-.09.05-.16.07-.03,0-.04.02-.44.15-.12.06-.08.02-.17.05-.25.07-.38.1.16,0-.06,0-.09,0-.29.02-.09.02h-.33s-.34-.05-.52-.1l.54.54c.32-1,.64-2,.96-3,.19-.6-.91-.59-1.23-.54-.57.09-1.43.33-1.66.94-.32.83-.77,1.57-1.35,2.24-.25.29-.54.56-.85.79s-.13.06-.11.07c.08.09.59-.24.69-.09-.06-.1-.18-.08-.24-.15-.71-.81.26-2.41.86-3.08.46-.52-.39-.76-.76-.76-.68,0-1.46.25-1.92.77h0v.02Z"/>
  <path class="cls-1" d="M158.65,29.26c-.32.24-.57.48-.79.82-.14.22-.24.48-.3.73s-.06.51-.04.77c0,.19.05.38.13.56.21.48.55.9,1.04,1.12.37.17.7.25,1.1.3.43.05.86,0,1.28-.1s.85-.27,1.23-.5.63-.5.89-.83c.15-.19.12-.51-.03-.69-.17-.22-.54-.31-.8-.32-.38-.02-.79.05-1.14.21l-.32.18c-.18.11-.33.26-.44.44l-.02.02.18-.23c-.06.08-.14.15-.22.22l.26-.21c-.07.06-.15.11-.23.15l.32-.18c-.08.04-.16.08-.25.11l.38-.13c-.09.03-.18.05-.27.07l.39-.07c-.09.02-.18.02-.28.03h.37c-.11,0-.23-.01-.34-.03l.33.05c-.12-.02-.24-.05-.35-.1l.27.11c-.13-.06-.25-.13-.37-.22l.2.16c-.15-.12-.27-.27-.37-.45l.11.21c-.11-.22-.17-.46-.18-.71v.24c0-.24.04-.47.12-.69l-.09.24c.06-.15.14-.29.24-.42l-.18.23c.06-.08.13-.15.21-.22l-.26.21s.03-.03.05-.04c.22-.17.48-.39.53-.68.04-.25-.1-.49-.32-.61-.29-.16-.65-.2-.97-.15-.37.05-.79.15-1.09.38h0l.02.02Z"/>
  <path class="cls-1" d="M163.22,24h-.59c-.2,0-.4.06-.58.14-.18.05-.35.14-.51.26-.14.1-.26.22-.34.37-.1.12-.15.26-.17.41l.02.28c.06.19.17.34.33.46l.28.14c.23.08.47.11.71.09h.59c.2,0,.4-.06.58-.14.18-.05.35-.14.51-.26.14-.1.26-.22.34-.37.1-.12.15-.26.17-.41l-.02-.28c-.06-.19-.17-.34-.33-.46l-.28-.14c-.23-.08-.47-.11-.71-.09h0Z"/>
  <path class="cls-1" d="M171.05,27.67c0-.35-.28-.62-.6-.74-.62-.23-1.32-.15-1.95,0-.49.12-1,.33-1.42.61-.47.32-.85.72-1.23,1.14-.61.66-1.08,1.46-1.05,2.38.02.75.45,1.5,1.16,1.79s1.58.23,2.32.02c.69-.2,1.33-.53,1.89-.98.65-.52,1.17-1.25,1.42-2.05.21-.67.21-1.46-.14-2.09-.21-.38-.44-.63-.81-.85-.28-.17-.62-.27-.94-.31-1.1-.14-2.32.1-3.26.71-.71.47-1.32,1.17-1.12,2.08.05.23.37.34.55.37.33.07.76.02,1.08-.07s.71-.23.97-.48c.17-.16.35-.35.29-.6-.02-.1-.03-.19-.03-.29v.2c0-.17.04-.33.12-.48l-.1.2c.05-.09.13-.17.17-.25-.13.23-.16.16-.05.06.1-.09.25-.14-.1.06.05-.03.09-.06.14-.09.24-.15-.33.14-.14.07.03-.01.05-.02.08-.03.14-.05.05-.02-.26.08.06-.02.11-.03.17-.05.22-.06-.48.08-.18.04.13-.02.35,0-.15,0h.17c.19,0-.37-.05-.11,0,.06,0,.11.02.17.03.16.03-.28-.11-.06-.02.1.05.2.09.3.15l-.19-.13c.2.14.34.31.47.51l-.1-.17c.2.35.29.74.28,1.15v-.2c0,.44-.13.85-.32,1.25l.1-.2c-.11.23-.25.44-.4.64-.04.05-.08.09-.11.13-.13.16.19-.19,0-.01-.09.09-.19.17-.28.25-.17.14.27-.17.08-.05-.06.04-.12.07-.19.11-.22.14.33-.14.03-.02s.34-.08.07-.02l.25-.05c-.14.02-.09.02.15,0-.25,0,.29.06.04,0-.23-.05.19.09.03,0-.06-.03-.12-.06-.18-.1l.19.13c-.18-.12-.31-.26-.43-.44l.1.17c-.18-.3-.26-.63-.26-.98v.2c0-.35.1-.67.25-.99l-.1.2c.16-.31.37-.59.6-.86.03-.04.06-.07.09-.11-.11.11-.12.13-.04.05.07-.07.13-.13.2-.2.11-.11.22-.22.34-.32.18-.16-.27.17-.09.06.06-.03.11-.06.17-.1-.43.24-.22.11-.1.06.22-.09-.44.13-.17.06s-.41.07-.19.04c.21-.03-.43,0-.15.01-.25-.03-.32-.03-.2-.02.1.02.05,0-.16-.05.03.03.08.04.12.06l-.19-.13s.08.07.11.12l-.1-.17c.04.08.06.16.06.26,0,.22.41.35.55.37.33.07.76.02,1.08-.07s.71-.23.97-.48c.19-.18.3-.33.29-.6h0l.03.03Z"/>
  <path class="cls-1" d="M171.81,27.74c-1.03.24-2.16.86-1.98,2.07.16,1.12,1.16,1.58,2.19,1.55,1.51-.05,3.04-.76,3.97-1.96.83-1.07,1.17-2.63,2.32-3.41l-2.56.13c-.21,1.21-.03,2.34.66,3.37.42.62,1.8.14,2.3-.13,1.45-.78,2.75-1.77,3.82-3.02l-2.77.46c.15,1.17.69,2.19,1.55,2.99.57.54,2.23-.1,2.68-.58,1.07-1.15,2.38-2.08,3.9-2.53.31-.09,1.44-.42,1.31-.92s-1.33-.22-1.59-.14c-2.39.69-4.56,1.9-6.26,3.72l2.68-.58c-.79-.75-1.23-1.66-1.37-2.74-.1-.82-2.49.13-2.77.46-.83.96-1.77,1.76-2.89,2.36l2.3-.13c-.61-.92-.88-1.97-.69-3.06.17-.95-2.26-.07-2.56.13-1.43.97-1.75,2.57-2.79,3.84-.1.13-.21.25-.33.36-.07.07-.14.13-.23.19-.29.18-.05.14.72-.12-.03-.09-.38-.26-.47-.39-.14-.2-.22-.47-.24-.71,0-.11.03-.23.02-.33l.04-.12c.14-.28-.09-.18-.69.3.31-.07,1.44-.43,1.31-.92s-1.32-.2-1.59-.14h0Z"/>
  <path class="cls-1" d="M187.64,27.34c1.67,0,2.21-2.17.24-2.17-1.67,0-2.21,2.17-.24,2.17h0Z"/>
  <path class="cls-1" d="M184.24,29.91c.55,0,1.63-.21,1.92-.75s-.25-.7-.74-.7c-.55,0-1.63.21-1.92.75s.25.7.74.7h0Z"/>
  <path class="cls-1" d="M185.47,30.08c8.25-2.33,16.32-5.3,24.09-8.92,4.13-1.93,15.2-6.23,10.11-12.58-2.08-2.6-5.6-3.73-8.64-4.72-3.92-1.27-7.95-2.14-12.03-2.73C190.7-.07,182.27-.09,173.9.07c-17.86.34-35.69,1.9-53.33,4.65-17.64,2.75-34.7,6.61-51.62,11.64-15.72,4.67-31.36,10.28-45.37,18.94-6.72,4.15-13.17,8.97-18.47,14.86C3,52.5-.4,55.79.04,59.25c.37,2.86,3.26,4.4,5.73,5.2,3.81,1.23,8.02,1.64,11.98,2.04,4.42.44,8.86.62,13.29.64,8.97.04,17.95-.46,26.9-.92,18.24-.95,36.45-2.3,54.63-4.05s36.32-3.88,54.41-6.4,36.28-5.47,54.32-8.79c4.22-.78,8.44-1.58,12.65-2.4.45-.09.33-.51-.11-.43-17.33,3.37-34.73,6.38-52.19,9.03-17.33,2.62-34.71,4.89-52.13,6.79-17.34,1.9-34.72,3.43-52.12,4.61-8.74.59-17.49,1.09-26.24,1.5-8.79.41-17.59.82-26.39.42-4.41-.2-8.82-.61-13.18-1.34-3.23-.54-7.29-1.04-9.63-3.6-3.03-3.32.37-7.32,2.61-9.96,2.54-3,5.39-5.72,8.42-8.22,12.48-10.27,27.52-17.08,42.69-22.33s32.05-9.69,48.42-12.96,33.93-5.63,51.08-6.77c8.57-.57,17.17-.89,25.76-.86s16.58.5,24.63,2.42c3.65.87,7.62,1.88,10.85,3.83s5.17,5.36,2.36,8.52c-1.22,1.38-2.89,2.28-4.51,3.11-1.8.92-3.61,1.8-5.45,2.65-3.81,1.76-7.68,3.37-11.61,4.82s-7.86,2.71-11.87,3.84c-.44.12-.33.55.11.43h.02Z"/>
</svg>